<mxfile host="app.diagrams.net" modified="2024-06-22T03:19:27.731Z" agent="Mozilla/5.0 (Windows NT 10.0; Win64; x64) AppleWebKit/537.36 (KHTML, like Gecko) Chrome/126.0.0.0 Safari/537.36" version="24.5.5" etag="_7kBUW556vYHfcosK_8L" type="github">
  <diagram name="Page-1" id="a0YTgWxM5rlxJzuy_nO5">
    <mxGraphModel>
      <root>
        <mxCell id="0" />
        <mxCell id="1" parent="0" />
      </root>
    </mxGraphModel>
  </diagram>
</mxfile>
